<svg width="111" height="27" viewBox="0 0 111 27" fill="none" xmlns="http://www.w3.org/2000/svg">
<path fill-rule="evenodd" clip-rule="evenodd" d="M43.355 19.109L41.8443 26.1323H38.3698L44.1103 0.679162H48.2262L53.6267 26.1323H50.1145L48.6416 19.109H43.355ZM48.2262 16.2766L47.0554 10.1956C46.7155 8.45835 46.3756 6.19364 46.1119 4.38024H45.9602C45.6965 6.23078 45.3175 8.57165 44.9789 10.1956L43.7704 16.2766H48.2262ZM66.8889 0V21.4121C66.8889 22.8101 66.9644 24.8495 67.0393 26.1329H63.9809L63.7543 23.9053H63.641C63.0368 25.1887 61.6394 26.4356 59.7895 26.4356C56.3906 26.4356 54.3134 22.7339 54.3134 17.0325C54.3134 10.5367 57.0697 7.47769 59.9783 7.47769C61.4506 7.47769 62.6213 8.15811 63.2634 9.55482H63.3389V0H66.8889ZM63.3383 14.7659C63.3383 14.4267 63.3383 14.0112 63.3005 13.6323C63.1117 11.9712 62.1675 10.5361 60.8841 10.5361C58.6553 10.5361 57.9006 13.6323 57.9006 17.0319C57.9006 20.8085 58.8825 23.4515 60.7708 23.4515C61.5639 23.4515 62.6207 23.0361 63.225 20.8463C63.3005 20.5441 63.3383 20.0903 63.3383 19.6761V14.7659ZM75.3447 26.435C71.6821 26.435 69.0378 23.3004 69.0378 16.9947C69.0378 10.3095 72.1718 7.47706 75.5329 7.47706C79.1585 7.47706 81.7637 10.7249 81.7637 16.9186C81.7637 24.2074 78.1759 26.435 75.3819 26.435H75.3447ZM75.4574 23.641C77.6472 23.641 78.1388 19.751 78.1388 16.957C78.1388 14.1994 77.6479 10.2724 75.3825 10.2724C73.0404 10.2724 72.5878 14.1994 72.5878 16.957C72.5878 20.0154 73.1165 23.641 75.4203 23.641H75.4574ZM83.9038 0H87.4532V9.85633H87.5287C88.4729 8.19525 89.7569 7.47706 91.3809 7.47706C94.5148 7.47706 96.4793 11.0271 96.4793 16.6542C96.4793 23.2249 93.7979 26.435 90.7766 26.435C88.9638 26.435 87.9441 25.4525 87.1504 23.8285H87.0006L86.8112 26.1323H83.7527C83.8283 24.8866 83.9038 22.8095 83.9038 21.4115V0ZM87.4532 19.6365C87.4532 20.0532 87.491 20.4686 87.6042 20.7701C88.1701 22.9989 89.266 23.4515 89.9829 23.4515C92.0978 23.4515 92.8909 20.6574 92.8909 16.8808C92.8909 13.3686 92.0607 10.5361 89.9451 10.5361C88.7744 10.5361 87.8302 11.9335 87.5659 13.2553C87.4903 13.6329 87.4526 14.1245 87.4526 14.5016V19.6365H87.4532ZM101.717 17.6733C101.755 22.394 103.794 23.5642 105.947 23.5642C107.231 23.5642 108.326 23.2627 109.119 22.8844L109.648 25.4525C108.552 26.019 106.891 26.3217 105.267 26.3217C100.66 26.3217 98.243 22.8472 98.243 17.1823C98.243 11.1775 100.999 7.47643 104.814 7.47643C108.628 7.47643 110.403 11.1397 110.403 15.7478C110.403 16.6536 110.365 17.2207 110.327 17.711L101.717 17.6733ZM107.042 15.1436C107.08 11.8957 105.947 10.1591 104.55 10.1591C102.699 10.1591 101.868 12.8405 101.755 15.1436H107.042Z" fill="#070F18"/>
<path fill-rule="evenodd" clip-rule="evenodd" d="M18.3638 0.747131H28.9679V26.1322L18.3638 0.747131ZM10.8936 0.747131H0.281982V26.1322L10.8936 0.747131ZM14.6293 10.1024L21.3857 26.1322H16.9582L14.9377 21.0269H9.99228L14.6293 10.1024Z" fill="#070F18"/>
<path fill-rule="evenodd" clip-rule="evenodd" d="M110.102 7.42984C110.208 7.43033 110.313 7.45189 110.411 7.49327C110.509 7.53465 110.598 7.59503 110.673 7.67093C110.747 7.74683 110.806 7.83674 110.846 7.93548C110.885 8.03423 110.905 8.13984 110.903 8.24622C110.903 8.70697 110.548 9.06637 110.098 9.06637C109.652 9.06637 109.288 8.7076 109.288 8.24622C109.288 8.13943 109.308 8.03358 109.349 7.93472C109.389 7.83586 109.449 7.74594 109.524 7.67011C109.599 7.59428 109.688 7.53402 109.787 7.49279C109.885 7.45156 109.991 7.43017 110.098 7.42984H110.102ZM110.098 7.55636C109.739 7.55636 109.444 7.86541 109.444 8.24622C109.444 8.63458 109.739 8.93923 110.102 8.93923C110.464 8.943 110.754 8.63458 110.754 8.25C110.754 7.86541 110.464 7.55636 110.102 7.55636H110.098ZM109.945 8.72207H109.801V7.81065C109.877 7.79995 109.95 7.78862 110.059 7.78862C110.197 7.78862 110.287 7.8182 110.341 7.85786C110.396 7.89751 110.425 7.9592 110.425 8.04669C110.425 8.16628 110.345 8.2393 110.247 8.26825V8.27517C110.327 8.28965 110.382 8.36266 110.399 8.49673C110.421 8.63836 110.443 8.69249 110.458 8.72207H110.306C110.284 8.69249 110.262 8.6094 110.244 8.48981C110.222 8.37336 110.164 8.32993 110.047 8.32993H109.946V8.72207H109.945ZM109.945 8.21726H110.051C110.17 8.21726 110.273 8.17383 110.273 8.06116C110.273 7.98123 110.214 7.90129 110.051 7.90129C110.004 7.90129 109.971 7.90507 109.945 7.90884V8.21726ZM30.366 0.747131C30.4724 0.747621 30.5776 0.769175 30.6757 0.810554C30.7737 0.851933 30.8625 0.912316 30.9371 0.988217C31.0116 1.06412 31.0704 1.15403 31.11 1.25278C31.1497 1.35152 31.1693 1.45712 31.1679 1.56351C31.1679 2.02425 30.8123 2.38366 30.3622 2.38366C29.916 2.38366 29.5528 2.02488 29.5528 1.56351C29.5522 1.45672 29.5727 1.35086 29.6131 1.25201C29.6535 1.15315 29.713 1.06323 29.7881 0.987395C29.8633 0.911563 29.9527 0.851307 30.0513 0.810079C30.1498 0.76885 30.2554 0.747461 30.3622 0.747131H30.366ZM30.3622 0.873646C30.0028 0.873646 29.7089 1.1827 29.7089 1.56351C29.7089 1.95187 30.0028 2.25651 30.366 2.25651C30.7286 2.26029 31.0194 1.95187 31.0194 1.56729C31.0194 1.1827 30.7286 0.873646 30.366 0.873646H30.3622ZM30.2099 2.03936H30.0645V1.12794C30.1498 1.11378 30.2361 1.10663 30.3226 1.10654C30.4604 1.10654 30.5511 1.13486 30.6052 1.17515C30.66 1.2148 30.6889 1.27711 30.6889 1.36398C30.6889 1.48357 30.609 1.55659 30.5108 1.58554V1.59246C30.5907 1.60694 30.6455 1.67995 30.6637 1.81465C30.6851 1.95628 30.7072 2.01041 30.7216 2.03999H30.5693C30.5473 2.01041 30.5253 1.92732 30.5076 1.80773C30.4856 1.69128 30.4277 1.64785 30.3112 1.64785H30.2099V2.03936ZM30.2099 1.53455H30.315C30.4346 1.53455 30.5366 1.49112 30.5366 1.37845C30.5366 1.29852 30.4787 1.21858 30.315 1.21858C30.2678 1.21858 30.2351 1.22236 30.2099 1.22613V1.53455Z" fill="#070F18"/>
</svg>
