<svg width="78" height="27" viewBox="0 0 78 27" fill="none" xmlns="http://www.w3.org/2000/svg">
<g clip-path="url(#clip0_1_194)">
<path d="M17.9757 14.0469C17.9438 10.7018 20.7085 9.09464 20.8329 9.0181C19.2767 6.74445 16.8596 6.43194 15.9986 6.39686C13.9418 6.1864 11.9838 7.60863 10.9379 7.60863C9.89191 7.60863 8.28153 6.42556 6.57549 6.46064C4.33054 6.49253 2.26097 7.76488 1.10341 9.77386C-1.22446 13.811 0.510282 19.806 2.78394 23.0874C3.89685 24.6914 5.21704 26.4994 6.95816 26.4325C8.6355 26.3655 9.26689 25.3483 11.2886 25.3483C13.3104 25.3483 13.8812 26.4325 15.651 26.4006C17.4527 26.3655 18.5943 24.7615 19.6977 23.1511C20.9668 21.2857 21.493 19.4839 21.5249 19.3883C21.4834 19.3723 18.0139 18.0426 17.9757 14.0469Z" fill="#070F18"/>
<path d="M14.6498 4.22205C15.5746 3.10276 16.1964 1.54979 16.0274 0C14.6976 0.0542106 13.0872 0.886503 12.1338 2.00579C11.2792 2.99434 10.5298 4.57601 10.7339 6.09391C12.2103 6.20871 13.7282 5.33815 14.6498 4.22205ZM29.6374 17.3346L28.1068 21.9744H26.1392L31.1489 7.22914H33.4449L38.4738 21.9744H36.4393L34.864 17.3346H29.6374ZM34.4717 15.8454L33.0304 11.6011C32.7019 10.638 32.4851 9.76429 32.265 8.90967H32.2236C32.0036 9.78342 31.7644 10.6795 31.4806 11.5787L30.0392 15.8423L34.4717 15.8454ZM39.9661 14.841C39.9661 13.4857 39.9247 12.3887 39.8769 11.3842H41.6052L41.6945 13.2019H41.736C42.5236 11.9104 43.7705 11.1451 45.4988 11.1451C48.0595 11.1451 49.9824 13.3103 49.9824 16.5279C49.9824 20.3354 47.6641 22.2136 45.1704 22.2136C43.7705 22.2136 42.5459 21.6013 41.9113 20.5522H41.8699V26.3049H39.9661V14.841ZM41.8667 17.6631C41.8667 17.9501 41.9082 18.2084 41.956 18.4507C42.3068 19.7837 43.4643 20.7053 44.8451 20.7053C46.8796 20.7053 48.0627 19.0439 48.0627 16.614C48.0627 14.4902 46.9466 12.6789 44.9121 12.6789C43.6014 12.6789 42.3769 13.6196 42.0006 15.0642C41.9337 15.3033 41.8699 15.5903 41.8699 15.8518L41.8667 17.6631ZM51.9722 14.841C51.9722 13.4857 51.9307 12.3887 51.8829 11.3842H53.6113L53.7006 13.2019H53.742C54.5297 11.9104 55.7765 11.1451 57.5049 11.1451C60.0655 11.1451 61.9884 13.3103 61.9884 16.5279C61.9884 20.3354 59.6701 22.2136 57.1764 22.2136C55.7765 22.2136 54.552 21.6013 53.9174 20.5522H53.8759V26.3049H51.9722V14.841ZM53.8759 17.6631C53.8759 17.9501 53.9174 18.2084 53.9652 18.4507C54.316 19.7837 55.4736 20.7053 56.8543 20.7053C58.8888 20.7053 60.0719 19.0439 60.0719 16.614C60.0719 14.4902 58.9558 12.6789 56.9213 12.6789C55.6107 12.6789 54.3862 13.6196 54.0099 15.0642C53.9429 15.3033 53.8791 15.5903 53.8791 15.8518L53.8759 17.6631ZM63.9814 6.4415H65.9075V21.9712H63.9814V6.4415ZM69.7788 17.0285C69.8202 19.6306 71.4848 20.7053 73.4077 20.7053C74.7853 20.7053 75.6176 20.4661 76.3383 20.16L76.6667 21.5376C75.9907 21.8437 74.8299 22.1945 73.1462 22.1945C69.8872 22.1945 67.9388 20.0515 67.9388 16.8563C67.9388 13.6611 69.8202 11.1451 72.9039 11.1451C76.3606 11.1451 77.279 14.184 77.279 16.1324C77.279 16.5279 77.2375 16.8308 77.212 17.0285H69.7788ZM75.4231 15.6509C75.4454 14.4264 74.9192 12.5227 72.754 12.5227C70.8056 12.5227 69.9542 14.318 69.8011 15.6509H75.4231Z" fill="#070F18"/>
</g>
<defs>
<clipPath id="clip0_1_194">
<rect width="77.282" height="26.4356" fill="white"/>
</clipPath>
</defs>
</svg>
