<svg width="82" height="27" viewBox="0 0 82 27" fill="none" xmlns="http://www.w3.org/2000/svg">
<g clip-path="url(#clip0_1_180)">
<path d="M10.5869 0.5672H11.3071C13.8075 0.621556 16.2672 1.62716 18.0338 3.40734C17.3815 4.07321 16.7156 4.7119 16.0769 5.37777C15.0849 4.48088 13.8891 3.78783 12.5845 3.54323C10.6548 3.13555 8.57569 3.50246 6.95858 4.60318C5.19198 5.75826 3.99613 7.71511 3.73794 9.80784C3.45257 11.8734 4.0369 14.0477 5.38223 15.6512C6.6732 17.2139 8.64364 18.1924 10.682 18.2603C12.5845 18.369 14.5685 17.7847 15.9546 16.4529C17.0418 15.5153 17.5446 14.0884 17.7076 12.7023C15.4518 12.7023 13.196 12.7159 10.9402 12.7023V9.90296H20.4391C20.9283 12.9062 20.2216 16.2899 17.9386 18.437C16.4167 19.959 14.3103 20.8558 12.1632 21.0325C10.0841 21.2363 7.937 20.8422 6.08887 19.8367C3.87383 18.6544 2.10724 16.6568 1.23753 14.3059C0.422177 12.1452 0.408588 9.69913 1.16958 7.52486C1.86263 5.54084 3.19437 3.78783 4.90661 2.56481C6.5509 1.35537 8.54851 0.689502 10.5869 0.5672Z" fill="#070F18"/>
<path d="M65.0795 1.27332H67.9876V20.6787C67.0227 20.6787 66.0443 20.6923 65.0795 20.6651C65.0931 14.2102 65.0795 7.74177 65.0795 1.27332Z" fill="#070F18"/>
<path d="M26.9076 7.99994C28.7014 7.66021 30.6447 8.04071 32.1259 9.11425C33.4712 10.0655 34.4089 11.5603 34.6942 13.191C35.0611 15.0799 34.5991 17.1455 33.3761 18.6403C32.0579 20.3117 29.8973 21.2086 27.7909 21.0727C25.8613 20.964 23.9859 19.9992 22.8445 18.4228C21.5535 16.6834 21.2409 14.2917 21.9476 12.2534C22.6542 10.0655 24.6518 8.39403 26.9076 7.99994ZM27.3153 10.5819C26.5815 10.7721 25.902 11.1934 25.4128 11.7913C24.0947 13.3677 24.1762 15.936 25.6302 17.4036C26.4592 18.2462 27.7094 18.6403 28.8645 18.4092C29.938 18.219 30.8757 17.4988 31.3921 16.5475C32.2889 14.9304 32.0308 12.7018 30.6582 11.438C29.7749 10.6227 28.484 10.2829 27.3153 10.5819Z" fill="#070F18"/>
<path d="M41.3121 7.99996C43.3641 7.60588 45.6063 8.17662 47.1419 9.61708C49.6423 11.8593 49.9141 16.0584 47.7806 18.6403C46.4896 20.271 44.3969 21.1679 42.3313 21.0728C40.3609 21.0184 38.4176 20.04 37.249 18.4229C35.9308 16.6427 35.6454 14.1966 36.3928 12.1175C37.1403 9.99757 39.0971 8.38046 41.3121 7.99996ZM41.7198 10.5819C40.986 10.7722 40.3065 11.1934 39.8173 11.7778C38.5128 13.3269 38.5671 15.8545 39.9668 17.3357C40.7957 18.219 42.0867 18.6539 43.2826 18.4093C44.3425 18.2054 45.2938 17.4988 45.8101 16.5476C46.6934 14.9169 46.4352 12.6882 45.0492 11.4244C44.1659 10.6091 42.8749 10.2829 41.7198 10.5819Z" fill="#070F18"/>
<path d="M53.5289 8.78813C55.0916 7.80971 57.1708 7.53793 58.8558 8.38046C59.3858 8.61147 59.8207 9.00556 60.2419 9.39965C60.2555 9.03274 60.2419 8.65224 60.2555 8.27174C61.166 8.28533 62.0765 8.27174 63.0005 8.28533V20.271C62.9869 22.0784 62.5249 23.9944 61.2203 25.3126C59.7935 26.7666 57.6056 27.2151 55.6352 26.9161C53.5289 26.6036 51.6943 25.068 50.879 23.1247C51.6943 22.7306 52.5504 22.4181 53.393 22.0512C53.8686 23.1655 54.8334 24.1167 56.0429 24.3342C57.2523 24.5516 58.652 24.2526 59.4402 23.247C60.2827 22.2142 60.2827 20.801 60.2419 19.5372C59.6168 20.1487 58.8966 20.6923 58.0269 20.8961C56.138 21.4261 54.0588 20.7738 52.6048 19.4964C51.1372 18.219 50.2675 16.2486 50.349 14.2918C50.3898 12.0767 51.64 9.94321 53.5289 8.78813ZM56.3418 10.5275C55.5129 10.6634 54.7383 11.1255 54.2083 11.7642C52.9309 13.2862 52.9309 15.7186 54.2219 17.2134C54.9557 18.0967 56.138 18.5859 57.2795 18.4636C58.353 18.3549 59.345 17.6755 59.875 16.7378C60.7719 15.1479 60.6224 12.9872 59.413 11.6011C58.6656 10.745 57.4697 10.3237 56.3418 10.5275Z" fill="#070F18"/>
<path d="M71.4799 9.48118C73.1106 7.95919 75.6246 7.4428 77.7174 8.24456C79.7014 8.99197 80.9652 10.8809 81.6039 12.8241C78.655 14.0472 75.7197 15.2566 72.7709 16.4796C73.1786 17.2542 73.8037 17.9608 74.6462 18.2462C75.8285 18.6675 77.2417 18.518 78.2338 17.7298C78.6278 17.4309 78.9404 17.0368 79.2394 16.6563C79.9868 17.1591 80.7342 17.6483 81.4816 18.1511C80.4216 19.741 78.6414 20.8553 76.7253 21.032C74.6054 21.2902 72.3496 20.4748 70.9771 18.817C68.7213 16.2078 68.9387 11.8321 71.4799 9.48118ZM72.934 11.9952C72.4719 12.6611 72.2817 13.4764 72.2953 14.2782C74.2657 13.4628 76.2361 12.6475 78.2066 11.8185C77.8804 11.0575 77.0923 10.5955 76.2905 10.4732C74.9995 10.2422 73.6542 10.9352 72.934 11.9952Z" fill="#070F18"/>
</g>
<defs>
<clipPath id="clip0_1_180">
<rect width="80.9916" height="26.4356" fill="white" transform="translate(0.612549 0.564331)"/>
</clipPath>
</defs>
</svg>
