<svg width="105" height="27" viewBox="0 0 105 27" fill="none" xmlns="http://www.w3.org/2000/svg">
<g clip-path="url(#clip0_1_172)">
<path fill-rule="evenodd" clip-rule="evenodd" d="M33.4227 21.3794L34.7266 18.3497C36.1348 19.4028 38.0112 19.9502 39.8624 19.9502C41.2289 19.9502 42.0939 19.4237 42.0939 18.6255C42.073 16.394 33.9075 18.1407 33.8448 12.5452C33.8239 9.70356 36.348 7.51383 39.9251 7.51383C42.0521 7.51383 44.175 8.04037 45.692 9.23971L44.4717 12.3321C43.0843 11.4462 41.3585 10.8151 39.7161 10.8151C38.6004 10.8151 37.8649 11.3417 37.8649 12.0145C37.8858 14.2042 46.114 13.0049 46.1976 18.3497C46.1976 21.254 43.7362 23.2975 40.2009 23.2975C37.61 23.2933 35.2322 22.6832 33.4227 21.3794ZM83.49 17.2548C82.8381 18.3915 81.6178 19.1687 80.2054 19.1687C78.1201 19.1687 76.4402 17.4846 76.4402 15.4036C76.4402 13.3225 78.1243 11.6384 80.2054 11.6384C81.6137 11.6384 82.8381 12.4157 83.49 13.5523L87.088 11.5548C85.7424 9.15613 83.1515 7.51383 80.2054 7.51383C75.8468 7.51383 72.3115 11.0492 72.3115 15.4077C72.3115 19.7663 75.8468 23.3017 80.2054 23.3017C83.1724 23.3017 85.7424 21.6802 87.088 19.2607L83.49 17.2548ZM48.0071 0.965515H52.5119V23.0008H48.0071V0.965515ZM88.8557 0.965515V23.0008H93.3605V16.3898L98.7053 23.0008H104.472L97.6731 15.1487L103.967 7.82306H98.4504L93.3563 13.9033V0.965515H88.8557Z" fill="#070F18"/>
<path d="M65.8968 17.2966C65.2449 18.3706 63.8993 19.1687 62.3823 19.1687C60.2971 19.1687 58.6172 17.4846 58.6172 15.4036C58.6172 13.3225 60.3013 11.6384 62.3823 11.6384C63.8993 11.6384 65.2449 12.4783 65.8968 13.5732V17.2966ZM65.8968 7.82724V9.6158C65.1613 8.37467 63.331 7.50964 61.4128 7.50964C57.4554 7.50964 54.3422 11.0032 54.3422 15.3827C54.3422 19.7621 57.4554 23.2975 61.4128 23.2975C63.3268 23.2975 65.1571 22.4366 65.8968 21.1913V22.9799H70.4016V7.82724H65.8968Z" fill="#070F18"/>
<path fill-rule="evenodd" clip-rule="evenodd" d="M5.57887 17.2757C5.57887 18.8135 4.33774 20.0546 2.79991 20.0546C1.26208 20.0546 0.0209503 18.8093 0.0209503 17.2757C0.0209503 15.742 1.26208 14.4967 2.79991 14.4967H5.57887V17.2757ZM6.96626 17.2757C6.96626 15.7378 8.20739 14.4967 9.74522 14.4967C11.2831 14.4967 12.5242 15.7378 12.5242 17.2757V24.221C12.5242 25.7588 11.2831 27 9.74522 27C8.20739 27 6.96626 25.7588 6.96626 24.221V17.2757Z" fill="#070F18"/>
<path fill-rule="evenodd" clip-rule="evenodd" d="M9.74517 6.12225C8.20734 6.12225 6.96621 4.88112 6.96621 3.34329C6.96621 1.80546 8.20734 0.564331 9.74517 0.564331C11.283 0.564331 12.5241 1.80546 12.5241 3.34329V6.12225H9.74517ZM9.74517 7.53054C11.283 7.53054 12.5241 8.77167 12.5241 10.3095C12.5241 11.8473 11.283 13.0885 9.74517 13.0885H2.77896C1.24113 13.0885 0 11.8431 0 10.3095C0 8.77584 1.24113 7.53054 2.77896 7.53054H9.74517Z" fill="#070F18"/>
<path fill-rule="evenodd" clip-rule="evenodd" d="M20.8778 10.3095C20.8778 8.77167 22.1189 7.53054 23.6568 7.53054C25.1946 7.53054 26.4357 8.77167 26.4357 10.3095C26.4357 11.8473 25.1946 13.0885 23.6568 13.0885H20.8778V10.3095ZM19.4904 10.3095C19.4904 11.8473 18.2493 13.0885 16.7114 13.0885C15.1736 13.0885 13.9325 11.8473 13.9325 10.3095V3.34329C13.9325 1.80546 15.1736 0.564331 16.7114 0.564331C18.2493 0.564331 19.4904 1.80546 19.4904 3.34329V10.3095Z" fill="#070F18"/>
<path fill-rule="evenodd" clip-rule="evenodd" d="M16.7114 21.442C18.2493 21.442 19.4904 22.6832 19.4904 24.221C19.4904 25.7588 18.2493 27 16.7114 27C15.1736 27 13.9325 25.7588 13.9325 24.221V21.442H16.7114ZM16.7114 20.0546C15.1736 20.0546 13.9325 18.8135 13.9325 17.2757C13.9325 15.7378 15.1736 14.4967 16.7114 14.4967H23.6776C25.2155 14.4967 26.4566 15.7378 26.4566 17.2757C26.4566 18.8135 25.2155 20.0546 23.6776 20.0546H16.7114Z" fill="#070F18"/>
</g>
<defs>
<clipPath id="clip0_1_172">
<rect width="104.472" height="26.4356" fill="white" transform="translate(0 0.564331)"/>
</clipPath>
</defs>
</svg>
