<svg width="89" height="27" viewBox="0 0 89 27" fill="none" xmlns="http://www.w3.org/2000/svg">
<g clip-path="url(#clip0_1_187)">
<path d="M13.6899 0.564331C6.39011 0.564331 0.472168 6.48211 0.472168 13.7819C0.472168 21.0825 6.39011 27 13.6899 27C20.99 27 26.9076 21.0825 26.9076 13.7819C26.9076 6.48258 20.9903 0.564962 13.6897 0.564962L13.6899 0.564331ZM19.7515 19.6279C19.5141 20.0173 19.0068 20.1393 18.6187 19.902C15.5148 18.005 11.608 17.5765 7.00708 18.6275C6.56372 18.7292 6.12178 18.4512 6.02077 18.008C5.91927 17.5646 6.19596 17.1227 6.64043 17.0217C11.6754 15.8706 15.9943 16.366 19.4783 18.4949C19.8665 18.7333 19.9896 19.2399 19.7513 19.6282L19.7515 19.6279ZM21.3693 16.0294C21.0704 16.5144 20.4362 16.6665 19.9518 16.3687C16.3996 14.1852 10.9832 13.5527 6.78075 14.8284C6.23573 14.993 5.66011 14.6858 5.49469 14.1418C5.33054 13.5968 5.63786 13.0222 6.18192 12.8565C10.9822 11.4 16.9497 12.1055 21.0298 14.6128C21.5144 14.9111 21.6675 15.5456 21.3691 16.0295L21.3693 16.0294ZM21.5082 12.2817C17.2475 9.75139 10.2197 9.51873 6.15239 10.7532C5.49927 10.9513 4.80857 10.5825 4.61064 9.92942C4.41271 9.27598 4.78111 8.58575 5.43471 8.3872C10.1037 6.96983 17.8653 7.24367 22.7699 10.1553C23.3574 10.5039 23.5501 11.2627 23.2019 11.8493C22.8547 12.4368 22.0939 12.6305 21.5084 12.2817H21.5082ZM36.4333 12.7665C34.1511 12.2223 33.7448 11.8404 33.7448 11.0378C33.7448 10.2795 34.4587 9.76923 35.5203 9.76923C36.5494 9.76923 37.5698 10.1567 38.6397 10.9544C38.672 10.9786 38.7126 10.9882 38.7525 10.9819C38.7925 10.9759 38.8278 10.9539 38.8512 10.921L39.9655 9.35016C40.0113 9.28545 39.9988 9.19628 39.9371 9.14687C38.6638 8.12519 37.23 7.62848 35.5541 7.62848C33.09 7.62848 31.3688 9.10725 31.3688 11.2231C31.3688 13.492 32.8535 14.2954 35.4193 14.9155C37.6032 15.4185 37.9717 15.84 37.9717 16.5933C37.9717 17.4281 37.2264 17.9471 36.027 17.9471C34.6949 17.9471 33.6083 17.4983 32.3928 16.4457C32.3627 16.4197 32.3213 16.4079 32.2831 16.4101C32.2429 16.4134 32.2061 16.432 32.1805 16.4628L30.9311 17.9498C30.8787 18.0115 30.8853 18.1036 30.9459 18.157C32.3601 19.4195 34.0995 20.0864 35.9765 20.0864C38.6318 20.0864 40.3476 18.6356 40.3476 16.39C40.3524 14.4944 39.2175 13.4448 36.438 12.7686L36.4333 12.7665ZM46.3549 10.5158C45.204 10.5158 44.2599 10.9691 43.4815 11.898V10.8524C43.4815 10.7699 43.4146 10.7027 43.3322 10.7027H41.2886C41.2061 10.7027 41.1393 10.7699 41.1393 10.8524V22.4696C41.1393 22.5521 41.2061 22.6194 41.2886 22.6194H43.3322C43.4146 22.6194 43.4815 22.5521 43.4815 22.4696V18.8025C44.2601 19.6763 45.2043 20.1033 46.3549 20.1033C48.4934 20.1033 50.6583 18.457 50.6583 15.3101C50.6615 12.1623 48.496 10.5156 46.3573 10.5156L46.3549 10.5158ZM48.2821 15.3101C48.2821 16.9126 47.295 18.0309 45.8815 18.0309C44.4842 18.0309 43.4302 16.8618 43.4302 15.3101C43.4302 13.7586 44.4842 12.5893 45.8815 12.5893C47.2721 12.5891 48.2822 13.7331 48.2822 15.3099L48.2821 15.3101ZM56.2071 10.5158C53.453 10.5158 51.2954 12.6365 51.2954 15.3443C51.2954 18.0227 53.4382 20.1211 56.1733 20.1211C58.9372 20.1211 61.1014 18.0075 61.1014 15.3101C61.1014 12.622 58.9517 10.5161 56.2069 10.5161L56.2071 10.5158ZM56.2071 18.0468C54.7422 18.0468 53.6378 16.8698 53.6378 15.3093C53.6378 13.7421 54.704 12.6049 56.1733 12.6049C57.6477 12.6049 58.7595 13.7819 58.7595 15.3435C58.7595 16.9104 57.6862 18.0468 56.2072 18.0468H56.2071ZM66.9826 10.7027H64.7339V8.40362C64.7339 8.32123 64.6673 8.25399 64.5848 8.25399H62.5416C62.4588 8.25399 62.3918 8.32123 62.3918 8.40362V10.7027H61.4092C61.327 10.7027 61.2604 10.7699 61.2604 10.8525V12.6087C61.2604 12.6911 61.327 12.7585 61.4092 12.7585H62.3918V17.3028C62.3918 19.1392 63.3058 20.0703 65.1085 20.0703C65.8415 20.0703 66.4496 19.9189 67.0227 19.5939C67.0693 19.5679 67.0981 19.5177 67.0981 19.4644V17.7919C67.0981 17.7403 67.0713 17.6915 67.0271 17.6646C66.9826 17.6366 66.9272 17.6352 66.8816 17.6578C66.4879 17.8558 66.1074 17.9472 65.682 17.9472C65.0264 17.9472 64.7339 17.6496 64.7339 16.9824V12.7593H66.9826C67.0651 12.7593 67.1316 12.6921 67.1316 12.6095V10.8534C67.1348 10.7709 67.0685 10.7036 66.9848 10.7036L66.9826 10.7027ZM74.8176 10.7117V10.4293C74.8176 9.59859 75.1362 9.22815 75.8505 9.22815C76.2765 9.22815 76.6187 9.31275 77.002 9.4406C77.0492 9.45545 77.0984 9.44802 77.1367 9.41977C77.1762 9.39151 77.1985 9.34621 77.1985 9.29823V7.57623C77.1985 7.5104 77.1562 7.45217 77.0927 7.43275C76.6879 7.31231 76.1698 7.18873 75.3942 7.18873C73.5068 7.18873 72.5091 8.25161 72.5091 10.2613V10.6938H71.5274C71.445 10.6938 71.3774 10.7611 71.3774 10.8434V12.6087C71.3774 12.6911 71.445 12.7585 71.5274 12.7585H72.5091V19.7679C72.5091 19.8504 72.5757 19.9176 72.6581 19.9176H74.7016C74.7842 19.9176 74.8514 19.8504 74.8514 19.7679V12.759H76.7594L79.682 19.7666C79.3503 20.5029 79.024 20.6494 78.5786 20.6494C78.2186 20.6494 77.8394 20.5419 77.4518 20.3298C77.4153 20.3097 77.3721 20.3064 77.3328 20.3186C77.2938 20.3323 77.261 20.3613 77.2444 20.3992L76.5518 21.9187C76.5188 21.9905 76.5471 22.0748 76.6162 22.1121C77.3392 22.5037 77.9919 22.6708 78.7986 22.6708C80.3075 22.6708 81.1415 21.968 81.8768 20.0771L85.4219 10.9162C85.4398 10.8701 85.4344 10.818 85.4061 10.7772C85.3781 10.7366 85.3328 10.7121 85.2832 10.7121H83.1559C83.0921 10.7121 83.0351 10.7527 83.0143 10.8125L80.835 17.0373L78.4481 10.8084C78.4263 10.7505 78.3704 10.7121 78.3085 10.7121H74.8172L74.8176 10.7117ZM70.2751 10.7027H68.2316C68.149 10.7027 68.0818 10.7699 68.0818 10.8525V19.7679C68.0818 19.8504 68.149 19.9177 68.2316 19.9177H70.2751C70.3575 19.9177 70.4249 19.8504 70.4249 19.7679V10.8531C70.4249 10.8334 70.4211 10.8139 70.4135 10.7957C70.406 10.7775 70.395 10.7609 70.381 10.747C70.3671 10.7331 70.3506 10.7221 70.3323 10.7146C70.3141 10.7071 70.2946 10.7032 70.2749 10.7033L70.2751 10.7027ZM69.2649 6.64326C68.4554 6.64326 67.7985 7.29859 67.7985 8.10815C67.7985 8.91817 68.4556 9.5743 69.2649 9.5743C70.0742 9.5743 70.7304 8.91817 70.7304 8.10815C70.7304 7.29876 70.0739 6.64326 69.2657 6.64326H69.2649ZM87.1668 13.5691C86.358 13.5691 85.7288 12.9196 85.7288 12.1309C85.7288 11.3422 86.3663 10.6853 87.1744 10.6853C87.9832 10.6853 88.6124 11.3346 88.6124 12.1227C88.6124 12.9114 87.9748 13.5691 87.1667 13.5691H87.1668ZM87.1747 10.8283C86.4381 10.8283 85.8808 11.4139 85.8808 12.1309C85.8808 12.8477 86.4341 13.4254 87.1673 13.4254C87.9037 13.4254 88.4617 12.8403 88.4617 12.1227C88.4617 11.406 87.9077 10.8283 87.1753 10.8283H87.1747ZM87.4935 12.2706L87.9003 12.8401H87.5573L87.1911 12.3177H86.8763V12.8401H86.5892V11.3305H87.2623C87.613 11.3305 87.8437 11.51 87.8437 11.8121C87.8452 12.0596 87.7016 12.2108 87.4948 12.2706H87.4935V12.2706ZM87.2505 11.5896H86.8761V12.067H87.2505C87.4373 12.067 87.5489 11.9756 87.5489 11.8281C87.5489 11.6727 87.4369 11.5896 87.2506 11.5896H87.2505V11.5896Z" fill="#070F18"/>
</g>
<defs>
<clipPath id="clip0_1_187">
<rect width="88.1403" height="26.4356" fill="white" transform="translate(0.472168 0.564331)"/>
</clipPath>
</defs>
</svg>
